<svg width="4341" height="3410" viewBox="0 0 4341 3410" fill="none" xmlns="http://www.w3.org/2000/svg">
<rect width="4341" height="3410" fill="white" fill-opacity="0.03"/>
<path d="M3283 2499C3283 2462 3313 2432 3350 2432H4235V3148H3283V2499Z" fill="#65E067"/>
<line x1="111" y1="216" x2="111" y2="102.996" stroke="black" stroke-width="16"/>
<line x1="71" y1="216.004" x2="71" y2="68.0037" stroke="black" stroke-width="16"/>
<line x1="63" y1="208" x2="118" y2="208" stroke="black" stroke-width="16"/>
<line x1="61.7374" y1="380.965" x2="118.703" y2="378.976" stroke="black" stroke-width="16"/>
<line x1="4244" y1="3152" x2="4244" y2="105" stroke="black" stroke-width="16"/>
<line x1="4279" y1="3208" x2="4279" y2="79" stroke="black" stroke-width="16"/>
<rect x="4233" y="84" width="19" height="19" fill="#D9D9D9"/>
<line x1="111" y1="3167" x2="111" y2="372" stroke="black" stroke-width="16"/>
<line x1="70" y1="3208" x2="70" y2="388" stroke="black" stroke-width="16"/>
<line x1="108" y1="111" x2="4252" y2="111" stroke="black" stroke-width="16"/>
<line x1="79" y1="76" x2="4287" y2="76" stroke="black" stroke-width="16"/>
<line x1="355" y1="3156" x2="3905" y2="3156" stroke="black" stroke-width="16"/>
<line x1="355" y1="3201" x2="3905" y2="3201" stroke="black" stroke-width="16"/>
<line x1="363" y1="3209" x2="363" y2="3154" stroke="black" stroke-width="16"/>
<line x1="3897" y1="3207" x2="3897" y2="3152" stroke="black" stroke-width="16"/>
<line x1="4226" y1="3208" x2="4226" y2="3165" stroke="black" stroke-width="16"/>
<line x1="4230" y1="3200" x2="4287" y2="3200" stroke="black" stroke-width="16"/>
<line x1="4223.75" y1="3170.53" x2="4246.12" y2="3146.54" stroke="black" stroke-width="16"/>
<line x1="191" y1="3208" x2="191" y2="3151" stroke="black" stroke-width="16"/>
<line x1="69" y1="3200" x2="198" y2="3200" stroke="black" stroke-width="16"/>
<line x1="108" y1="3159" x2="199" y2="3159" stroke="black" stroke-width="16"/>
<line x1="192.5" y1="3208" x2="192.5" y2="3360" stroke="black" stroke-width="13"/>
<path fill-rule="evenodd" clip-rule="evenodd" d="M195 3360C281.752 3360 352.867 3293.05 359.495 3208H354.48C347.863 3290.29 278.989 3355 195 3355V3360Z" fill="black"/>
<line y1="-6.5" x2="152" y2="-6.5" transform="matrix(1 0 0 -1 118 203)" stroke="black" stroke-width="13"/>
<path fill-rule="evenodd" clip-rule="evenodd" d="M270 212C270 298.752 203.05 369.867 118 376.495V371.48C200.286 364.863 265 295.989 265 212H270Z" fill="black"/>
<line x1="3899.5" y1="3207" x2="3899.5" y2="3359" stroke="black" stroke-width="11"/>
<path fill-rule="evenodd" clip-rule="evenodd" d="M3898 3359C3984.75 3359 4055.87 3292.05 4062.5 3207H4057.48C4050.86 3289.29 3981.99 3354 3898 3354V3359Z" fill="black"/>
<line y1="-5.5" x2="152" y2="-5.5" transform="matrix(0 1 1 0 4229 3207)" stroke="black" stroke-width="11"/>
<path fill-rule="evenodd" clip-rule="evenodd" d="M4222.5 3359C4135.74 3359 4064.63 3292.05 4058 3207H4063.02C4069.63 3289.29 4138.51 3354 4222.5 3354V3359Z" fill="black"/>
<path d="M2091.15 1612.51C2079.14 1612.51 2067.97 1610.46 2057.63 1606.35C2047.45 1602.1 2038.48 1596.17 2030.73 1588.57C2023.13 1580.97 2017.2 1572.15 2012.94 1562.12C2008.69 1551.94 2006.56 1540.99 2006.56 1529.29C2006.56 1517.58 2008.69 1506.72 2012.94 1496.68C2017.2 1486.5 2023.13 1477.68 2030.73 1470.24C2038.33 1462.79 2047.22 1457.01 2057.4 1452.91C2067.74 1448.65 2078.91 1446.52 2090.92 1446.52C2103.69 1446.52 2115.01 1448.58 2124.89 1452.68C2134.92 1456.78 2143.66 1462.41 2151.11 1469.55L2127.17 1493.72C2122.91 1489.16 2117.75 1485.59 2111.67 1483C2105.74 1480.42 2098.82 1479.13 2090.92 1479.13C2083.93 1479.13 2077.47 1480.34 2071.54 1482.78C2065.76 1485.06 2060.75 1488.4 2056.49 1492.81C2052.39 1497.22 2049.12 1502.54 2046.69 1508.77C2044.41 1515 2043.27 1521.84 2043.27 1529.29C2043.27 1536.89 2044.41 1543.8 2046.69 1550.04C2049.12 1556.27 2052.39 1561.59 2056.49 1566C2060.75 1570.4 2065.76 1573.82 2071.54 1576.26C2077.47 1578.69 2083.93 1579.9 2090.92 1579.9C2099.13 1579.9 2106.27 1578.61 2112.35 1576.03C2118.43 1573.44 2123.67 1569.87 2128.08 1565.31L2152.25 1589.48C2144.5 1596.62 2135.61 1602.25 2125.57 1606.35C2115.69 1610.46 2104.22 1612.51 2091.15 1612.51ZM2171.96 1610V1449.03H2207.76V1610H2171.96ZM2238.76 1610V1449.03H2274.55V1610H2238.76ZM2266.12 1546.84V1516.06H2346.6V1546.84H2266.12ZM2266.12 1479.81V1449.03H2350.25V1479.81H2266.12ZM1975.33 1899.51C1962.41 1899.51 1950.71 1896.01 1940.22 1889.02C1929.73 1882.03 1921.45 1872.3 1915.37 1859.84C1909.44 1847.22 1906.47 1832.7 1906.47 1816.29C1906.47 1799.72 1909.44 1785.28 1915.37 1772.97C1921.29 1760.5 1929.43 1750.85 1939.76 1744.01C1950.1 1737.02 1961.8 1733.52 1974.87 1733.52C1988.1 1733.52 1999.88 1737.02 2010.21 1744.01C2020.55 1750.85 2028.68 1760.5 2034.61 1772.97C2040.69 1785.43 2043.73 1799.95 2043.73 1816.52C2043.73 1833.08 2040.69 1847.6 2034.61 1860.06C2028.68 1872.53 2020.55 1882.26 2010.21 1889.25C2000.03 1896.09 1988.4 1899.51 1975.33 1899.51ZM1975.1 1867.82C1981.79 1867.82 1987.57 1865.92 1992.43 1862.12C1997.29 1858.16 2001.02 1852.39 2003.6 1844.79C2006.34 1837.04 2007.71 1827.61 2007.71 1816.52C2007.71 1805.27 2006.34 1795.84 2003.6 1788.24C2001.02 1780.64 1997.29 1774.94 1992.43 1771.14C1987.57 1767.19 1981.71 1765.22 1974.87 1765.22C1968.34 1765.22 1962.56 1767.12 1957.55 1770.92C1952.68 1774.72 1948.96 1780.42 1946.37 1788.02C1943.79 1795.62 1942.5 1805.04 1942.5 1816.29C1942.5 1827.54 1943.79 1836.96 1946.37 1844.56C1948.96 1852.16 1952.68 1857.94 1957.55 1861.89C1962.56 1865.84 1968.41 1867.82 1975.1 1867.82ZM2127.18 1899.51C2114.26 1899.51 2102.56 1896.01 2092.07 1889.02C2081.58 1882.03 2073.3 1872.3 2067.22 1859.84C2061.29 1847.22 2058.33 1832.7 2058.33 1816.29C2058.33 1799.72 2061.29 1785.28 2067.22 1772.97C2073.15 1760.5 2081.28 1750.85 2091.61 1744.01C2101.95 1737.02 2113.65 1733.52 2126.73 1733.52C2139.95 1733.52 2151.73 1737.02 2162.07 1744.01C2172.4 1750.85 2180.53 1760.5 2186.46 1772.97C2192.54 1785.43 2195.58 1799.95 2195.58 1816.52C2195.58 1833.08 2192.54 1847.6 2186.46 1860.06C2180.53 1872.53 2172.4 1882.26 2162.07 1889.25C2151.88 1896.09 2140.25 1899.51 2127.18 1899.51ZM2126.95 1867.82C2133.64 1867.82 2139.42 1865.92 2144.28 1862.12C2149.15 1858.16 2152.87 1852.39 2155.45 1844.79C2158.19 1837.04 2159.56 1827.61 2159.56 1816.52C2159.56 1805.27 2158.19 1795.84 2155.45 1788.24C2152.87 1780.64 2149.15 1774.94 2144.28 1771.14C2139.42 1767.19 2133.57 1765.22 2126.73 1765.22C2120.19 1765.22 2114.41 1767.12 2109.4 1770.92C2104.53 1774.72 2100.81 1780.42 2098.23 1788.02C2095.64 1795.62 2094.35 1805.04 2094.35 1816.29C2094.35 1827.54 2095.64 1836.96 2098.23 1844.56C2100.81 1852.16 2104.53 1857.94 2109.4 1861.89C2114.41 1865.84 2120.27 1867.82 2126.95 1867.82ZM2260.56 1899.51C2249.47 1899.51 2239.28 1897.61 2230.01 1893.81C2220.74 1889.86 2212.91 1884.23 2206.53 1876.94L2229.56 1853.91C2232.44 1858.16 2236.62 1861.66 2242.1 1864.4C2247.72 1866.98 2253.65 1868.27 2259.88 1868.27C2265.5 1868.27 2270.37 1867.28 2274.47 1865.31C2278.58 1863.33 2281.77 1860.52 2284.05 1856.87C2286.48 1853.22 2287.7 1848.89 2287.7 1843.88C2287.7 1838.86 2286.48 1834.6 2284.05 1831.11C2281.77 1827.46 2278.35 1824.65 2273.79 1822.67C2269.38 1820.7 2264.06 1819.71 2257.83 1819.71C2254.94 1819.71 2251.9 1819.94 2248.71 1820.39C2245.67 1820.7 2243.08 1821.23 2240.96 1821.99L2256.69 1802.15C2260.94 1800.94 2264.97 1799.95 2268.77 1799.19C2272.72 1798.28 2276.37 1797.82 2279.72 1797.82C2287.92 1797.82 2295.3 1799.8 2301.83 1803.75C2308.37 1807.55 2313.54 1813.02 2317.34 1820.16C2321.29 1827.16 2323.26 1835.52 2323.26 1845.24C2323.26 1855.88 2320.6 1865.31 2315.28 1873.52C2310.12 1881.72 2302.82 1888.11 2293.4 1892.67C2284.12 1897.23 2273.18 1899.51 2260.56 1899.51ZM2240.96 1821.99V1802.15L2280.17 1756.1L2320.3 1755.87L2279.49 1802.38L2240.96 1821.99ZM2216.56 1766.36V1736.03H2320.3V1755.87L2292.26 1766.36H2216.56ZM2388.15 1899.51C2377.06 1899.51 2366.64 1897.61 2356.92 1893.81C2347.34 1889.86 2339.36 1884.23 2332.98 1876.94L2356.23 1853.91C2359.12 1858.16 2363.3 1861.66 2368.77 1864.4C2374.4 1866.98 2380.48 1868.27 2387.01 1868.27C2392.79 1868.27 2397.8 1867.28 2402.06 1865.31C2406.32 1863.18 2409.66 1860.22 2412.09 1856.42C2414.52 1852.46 2415.74 1847.9 2415.74 1842.74C2415.74 1837.42 2414.52 1832.86 2412.09 1829.06C2409.66 1825.26 2406.24 1822.37 2401.83 1820.39C2397.58 1818.26 2392.71 1817.2 2387.24 1817.2C2381.77 1817.2 2376.75 1817.96 2372.19 1819.48C2367.63 1820.85 2363.45 1822.98 2359.65 1825.86L2362.62 1803.06C2366.11 1800.33 2369.46 1798.12 2372.65 1796.45C2375.84 1794.63 2379.34 1793.26 2383.14 1792.35C2386.94 1791.44 2391.42 1790.98 2396.59 1790.98C2408.44 1790.98 2418.4 1793.41 2426.46 1798.28C2434.66 1803.14 2440.82 1809.6 2444.92 1817.66C2449.18 1825.71 2451.31 1834.6 2451.31 1844.33C2451.31 1854.97 2448.65 1864.47 2443.33 1872.83C2438.16 1881.19 2430.86 1887.73 2421.44 1892.44C2412.02 1897.15 2400.92 1899.51 2388.15 1899.51ZM2359.65 1825.86L2344.15 1811.5L2351.9 1736.03H2384.28L2375.84 1810.82L2359.65 1825.86ZM2356.69 1766.36L2351.9 1736.03H2442.42V1766.36H2356.69Z" fill="black"/>
<path d="M3498.7 2837V2746.63H3518.8V2837H3498.7ZM3514.06 2837V2819.59H3563.6V2837H3514.06ZM3514.06 2799.24V2782.47H3559.12V2799.24H3514.06ZM3514.06 2763.91V2746.63H3562.96V2763.91H3514.06ZM3616.75 2837V2801.54C3616.75 2798.3 3615.73 2795.7 3613.68 2793.74C3611.72 2791.69 3609.2 2790.66 3606.13 2790.66C3603.99 2790.66 3602.12 2791.13 3600.49 2792.07C3598.87 2792.93 3597.59 2794.21 3596.65 2795.91C3595.72 2797.53 3595.25 2799.41 3595.25 2801.54L3587.69 2797.83C3587.69 2792.97 3588.76 2788.7 3590.89 2785.03C3593.03 2781.36 3595.97 2778.55 3599.73 2776.58C3603.57 2774.54 3607.88 2773.51 3612.65 2773.51C3617.26 2773.51 3621.32 2774.62 3624.81 2776.84C3628.4 2778.97 3631.21 2781.83 3633.26 2785.42C3635.31 2789 3636.33 2792.93 3636.33 2797.19V2837H3616.75ZM3575.66 2837V2774.79H3595.25V2837H3575.66ZM3656.99 2837V2749.06H3676.58V2837H3656.99ZM3642.91 2791.43V2774.79H3690.66V2791.43H3642.91ZM3699.29 2837V2774.79H3718.87V2837H3699.29ZM3718.87 2802.82L3710.68 2796.42C3712.3 2789.17 3715.03 2783.54 3718.87 2779.53C3722.71 2775.52 3728.04 2773.51 3734.87 2773.51C3737.86 2773.51 3740.46 2773.98 3742.68 2774.92C3744.98 2775.77 3746.99 2777.14 3748.7 2779.02L3737.05 2793.74C3736.19 2792.8 3735.13 2792.07 3733.85 2791.56C3732.57 2791.05 3731.12 2790.79 3729.5 2790.79C3726.25 2790.79 3723.65 2791.82 3721.69 2793.86C3719.81 2795.83 3718.87 2798.81 3718.87 2802.82ZM3778.15 2838.28C3772.43 2838.28 3767.31 2836.87 3762.79 2834.06C3758.35 2831.24 3754.81 2827.4 3752.16 2822.54C3749.6 2817.67 3748.32 2812.13 3748.32 2805.9C3748.32 2799.67 3749.6 2794.12 3752.16 2789.26C3754.81 2784.39 3758.35 2780.55 3762.79 2777.74C3767.31 2774.92 3772.43 2773.51 3778.15 2773.51C3782.33 2773.51 3786.08 2774.32 3789.41 2775.94C3792.82 2777.57 3795.6 2779.83 3797.73 2782.73C3799.86 2785.54 3801.06 2788.79 3801.31 2792.46V2819.34C3801.06 2823.01 3799.86 2826.29 3797.73 2829.19C3795.68 2832.01 3792.95 2834.23 3789.54 2835.85C3786.12 2837.47 3782.33 2838.28 3778.15 2838.28ZM3782.11 2820.62C3786.3 2820.62 3789.67 2819.25 3792.23 2816.52C3794.79 2813.7 3796.07 2810.16 3796.07 2805.9C3796.07 2802.99 3795.47 2800.43 3794.27 2798.22C3793.16 2796 3791.54 2794.29 3789.41 2793.1C3787.36 2791.82 3784.97 2791.18 3782.24 2791.18C3779.51 2791.18 3777.08 2791.82 3774.95 2793.1C3772.9 2794.29 3771.23 2796 3769.95 2798.22C3768.76 2800.43 3768.16 2802.99 3768.16 2805.9C3768.16 2808.71 3768.76 2811.23 3769.95 2813.45C3771.15 2815.67 3772.81 2817.42 3774.95 2818.7C3777.08 2819.98 3779.47 2820.62 3782.11 2820.62ZM3795.3 2837V2820.23L3798.24 2805.13L3795.3 2790.02V2774.79H3814.5V2837H3795.3ZM3869.38 2837V2801.54C3869.38 2798.3 3868.35 2795.7 3866.3 2793.74C3864.34 2791.69 3861.82 2790.66 3858.75 2790.66C3856.62 2790.66 3854.74 2791.13 3853.12 2792.07C3851.5 2792.93 3850.22 2794.21 3849.28 2795.91C3848.34 2797.53 3847.87 2799.41 3847.87 2801.54L3840.32 2797.83C3840.32 2792.97 3841.39 2788.7 3843.52 2785.03C3845.65 2781.36 3848.6 2778.55 3852.35 2776.58C3856.19 2774.54 3860.5 2773.51 3865.28 2773.51C3869.89 2773.51 3873.94 2774.62 3877.44 2776.84C3881.02 2778.97 3883.84 2781.83 3885.89 2785.42C3887.94 2789 3888.96 2792.93 3888.96 2797.19V2837H3869.38ZM3828.29 2837V2774.79H3847.87V2837H3828.29ZM3931.62 2838.41C3925.22 2838.41 3919.41 2837 3914.21 2834.18C3909 2831.37 3904.91 2827.49 3901.92 2822.54C3898.93 2817.59 3897.44 2812.04 3897.44 2805.9C3897.44 2799.67 3898.93 2794.12 3901.92 2789.26C3904.99 2784.31 3909.13 2780.42 3914.34 2777.61C3919.54 2774.79 3925.39 2773.38 3931.87 2773.38C3936.74 2773.38 3941.17 2774.24 3945.19 2775.94C3949.28 2777.57 3952.91 2780.04 3956.07 2783.37L3943.52 2795.91C3942.07 2794.29 3940.36 2793.1 3938.4 2792.33C3936.52 2791.56 3934.35 2791.18 3931.87 2791.18C3929.06 2791.18 3926.54 2791.82 3924.32 2793.1C3922.19 2794.29 3920.48 2796 3919.2 2798.22C3918.01 2800.35 3917.41 2802.87 3917.41 2805.77C3917.41 2808.67 3918.01 2811.23 3919.2 2813.45C3920.48 2815.67 3922.23 2817.42 3924.45 2818.7C3926.67 2819.98 3929.14 2820.62 3931.87 2820.62C3934.43 2820.62 3936.69 2820.19 3938.66 2819.34C3940.71 2818.4 3942.45 2817.12 3943.91 2815.5L3956.32 2828.04C3953.08 2831.45 3949.41 2834.06 3945.31 2835.85C3941.22 2837.55 3936.65 2838.41 3931.62 2838.41ZM3994.26 2838.41C3987.52 2838.41 3981.5 2837.04 3976.21 2834.31C3971 2831.5 3966.91 2827.61 3963.92 2822.66C3960.93 2817.71 3959.44 2812.13 3959.44 2805.9C3959.44 2799.67 3960.89 2794.12 3963.79 2789.26C3966.78 2784.31 3970.79 2780.42 3975.83 2777.61C3980.86 2774.79 3986.53 2773.38 3992.85 2773.38C3998.99 2773.38 4004.41 2774.71 4009.11 2777.35C4013.8 2780 4017.47 2783.67 4020.11 2788.36C4022.84 2793.05 4024.21 2798.43 4024.21 2804.49C4024.21 2805.6 4024.12 2806.79 4023.95 2808.07C4023.87 2809.27 4023.65 2810.67 4023.31 2812.3L3969.68 2812.42V2798.98L4014.99 2798.86L4006.55 2804.49C4006.46 2800.9 4005.91 2797.96 4004.88 2795.66C4003.86 2793.27 4002.32 2791.47 4000.27 2790.28C3998.31 2789 3995.88 2788.36 3992.98 2788.36C3989.91 2788.36 3987.22 2789.09 3984.91 2790.54C3982.69 2791.9 3980.95 2793.86 3979.67 2796.42C3978.47 2798.98 3977.87 2802.1 3977.87 2805.77C3977.87 2809.44 3978.51 2812.59 3979.79 2815.24C3981.16 2817.8 3983.04 2819.81 3985.43 2821.26C3987.9 2822.62 3990.8 2823.3 3994.13 2823.3C3997.2 2823.3 3999.97 2822.79 4002.45 2821.77C4004.92 2820.66 4007.1 2819.04 4008.98 2816.9L4019.73 2827.66C4016.66 2831.24 4012.95 2833.93 4008.59 2835.72C4004.24 2837.51 3999.46 2838.41 3994.26 2838.41Z" fill="black"/>
<path d="M2281.98 2608.02C2275.34 2601.38 2275.34 2590.62 2281.98 2583.98L2390.17 2475.79C2396.81 2469.15 2407.57 2469.15 2414.21 2475.79C2420.85 2482.43 2420.85 2493.19 2414.21 2499.83L2318.04 2596L2414.21 2692.17C2420.85 2698.81 2420.85 2709.57 2414.21 2716.21C2407.57 2722.85 2396.81 2722.85 2390.17 2716.21L2281.98 2608.02ZM3068.02 2613H2294V2579H3068.02V2613Z" fill="#A4A4A4"/>
<path d="M1135.98 2608.02C1129.34 2601.38 1129.34 2590.62 1135.98 2583.98L1244.17 2475.79C1250.81 2469.15 1261.57 2469.15 1268.21 2475.79C1274.85 2482.43 1274.85 2493.19 1268.21 2499.83L1172.04 2596L1268.21 2692.17C1274.85 2698.81 1274.85 2709.57 1268.21 2716.21C1261.57 2722.85 1250.81 2722.85 1244.17 2716.21L1135.98 2608.02ZM1922.02 2613H1148V2579H1922.02V2613Z" fill="#A4A4A4"/>
<path d="M3080.02 772.979C3086.66 779.618 3086.66 790.382 3080.02 797.021L2971.83 905.208C2965.19 911.847 2954.43 911.847 2947.79 905.208C2941.15 898.569 2941.15 887.805 2947.79 881.167L3043.96 785L2947.79 688.833C2941.15 682.195 2941.15 671.431 2947.79 664.792C2954.43 658.153 2965.19 658.153 2971.83 664.792L3080.02 772.979ZM2293.98 768H3068V802H2293.98V768Z" fill="#A4A4A4"/>
<path d="M1934.02 772.979C1940.66 779.618 1940.66 790.382 1934.02 797.021L1825.83 905.208C1819.19 911.847 1808.43 911.847 1801.79 905.208C1795.15 898.569 1795.15 887.805 1801.79 881.167L1897.96 785L1801.79 688.833C1795.15 682.195 1795.15 671.431 1801.79 664.792C1808.43 658.153 1819.19 658.153 1825.83 664.792L1934.02 772.979ZM1147.98 768H1922V802H1147.98V768Z" fill="#A4A4A4"/>
<path d="M826.979 1319.98C833.618 1313.34 844.382 1313.34 851.021 1319.98L959.208 1428.17C965.847 1434.81 965.847 1445.57 959.208 1452.21C952.569 1458.85 941.805 1458.85 935.167 1452.21L839 1356.04L742.833 1452.21C736.195 1458.85 725.431 1458.85 718.792 1452.21C712.153 1445.57 712.153 1434.81 718.792 1428.17L826.979 1319.98ZM822 2106.02V1332H856V2106.02H822Z" fill="#A4A4A4"/>
<path d="M3557.02 2107.02C3550.38 2113.66 3539.62 2113.66 3532.98 2107.02L3424.79 1998.83C3418.15 1992.19 3418.15 1981.43 3424.79 1974.79C3431.43 1968.15 3442.19 1968.15 3448.83 1974.79L3545 2070.96L3641.17 1974.79C3647.81 1968.15 3658.57 1968.15 3665.21 1974.79C3671.85 1981.43 3671.85 1992.19 3665.21 1998.83L3557.02 2107.02ZM3562 1320.98V2095H3528V1320.98H3562Z" fill="#A4A4A4"/>
</svg>
