<svg width="479" height="1030" viewBox="0 0 479 1030" fill="none" xmlns="http://www.w3.org/2000/svg">
<rect x="108.707" y="869.806" width="225" height="225" transform="rotate(-45 108.707 869.806)" stroke="white"/>
<rect x="108.707" y="839.806" width="225" height="225" transform="rotate(-45 108.707 839.806)" stroke="white"/>
<rect x="108.707" y="799.806" width="225" height="225" transform="rotate(-45 108.707 799.806)" stroke="white"/>
<rect x="108.707" y="759.806" width="225" height="225" transform="rotate(-45 108.707 759.806)" stroke="white"/>
<rect x="108.707" y="719.806" width="225" height="225" transform="rotate(-45 108.707 719.806)" stroke="white"/>
<rect x="0.707107" y="465.806" width="225" height="225" transform="rotate(-45 0.707107 465.806)" stroke="white"/>
<rect x="0.707107" y="435.806" width="225" height="225" transform="rotate(-45 0.707107 435.806)" stroke="white"/>
<rect x="0.707107" y="395.806" width="225" height="225" transform="rotate(-45 0.707107 395.806)" stroke="white"/>
<rect x="159.707" y="470.806" width="225" height="225" transform="rotate(-45 159.707 470.806)" stroke="white"/>
<rect x="159.707" y="440.806" width="225" height="225" transform="rotate(-45 159.707 440.806)" stroke="white"/>
<rect x="159.707" y="400.806" width="225" height="225" transform="rotate(-45 159.707 400.806)" stroke="white"/>
<rect x="82.7071" y="229.806" width="225" height="225" transform="rotate(-45 82.7071 229.806)" stroke="white"/>
<rect x="82.7071" y="199.806" width="225" height="225" transform="rotate(-45 82.7071 199.806)" stroke="white"/>
<rect x="82.7071" y="159.806" width="225" height="225" transform="rotate(-45 82.7071 159.806)" stroke="white"/>
</svg>
