<svg width="421" height="480" viewBox="0 0 421 480" fill="none" xmlns="http://www.w3.org/2000/svg">
<rect x="255.806" y="478.905" width="225" height="225" transform="rotate(-135 255.806 478.905)" stroke="white"/>
<rect x="225.806" y="478.905" width="225" height="225" transform="rotate(-135 225.806 478.905)" stroke="white"/>
<rect x="185.806" y="478.905" width="225" height="225" transform="rotate(-135 185.806 478.905)" stroke="white"/>
<rect x="260.806" y="318.905" width="225" height="225" transform="rotate(-135 260.806 318.905)" stroke="white"/>
<rect x="230.806" y="318.905" width="225" height="225" transform="rotate(-135 230.806 318.905)" stroke="white"/>
<rect x="190.806" y="318.905" width="225" height="225" transform="rotate(-135 190.806 318.905)" stroke="white"/>
<rect x="19.8062" y="395.905" width="225" height="225" transform="rotate(-135 19.8062 395.905)" stroke="white"/>
<rect x="-10.1938" y="395.905" width="225" height="225" transform="rotate(-135 -10.1938 395.905)" stroke="white"/>
<rect x="-50.1938" y="395.905" width="225" height="225" transform="rotate(-135 -50.1938 395.905)" stroke="white"/>
</svg>
