<svg width="631" height="801" viewBox="0 0 631 801" fill="none" xmlns="http://www.w3.org/2000/svg">
<rect x="0.707107" y="309.806" width="225" height="225" transform="rotate(-45 0.707107 309.806)" stroke="white"/>
<rect x="0.707107" y="279.806" width="225" height="225" transform="rotate(-45 0.707107 279.806)" stroke="white"/>
<rect x="0.707107" y="239.806" width="225" height="225" transform="rotate(-45 0.707107 239.806)" stroke="white"/>
<rect x="0.707107" y="199.806" width="225" height="225" transform="rotate(-45 0.707107 199.806)" stroke="white"/>
<rect x="0.707107" y="159.806" width="225" height="225" transform="rotate(-45 0.707107 159.806)" stroke="white"/>
<rect x="465.806" y="799.905" width="225" height="225" transform="rotate(-135 465.806 799.905)" stroke="white"/>
<rect x="435.806" y="799.905" width="225" height="225" transform="rotate(-135 435.806 799.905)" stroke="white"/>
<rect x="395.806" y="799.905" width="225" height="225" transform="rotate(-135 395.806 799.905)" stroke="white"/>
<rect x="470.806" y="639.905" width="225" height="225" transform="rotate(-135 470.806 639.905)" stroke="white"/>
<rect x="440.806" y="639.905" width="225" height="225" transform="rotate(-135 440.806 639.905)" stroke="white"/>
<rect x="400.806" y="639.905" width="225" height="225" transform="rotate(-135 400.806 639.905)" stroke="white"/>
<rect x="229.806" y="716.905" width="225" height="225" transform="rotate(-135 229.806 716.905)" stroke="white"/>
<rect x="199.806" y="716.905" width="225" height="225" transform="rotate(-135 199.806 716.905)" stroke="white"/>
<rect x="159.806" y="716.905" width="225" height="225" transform="rotate(-135 159.806 716.905)" stroke="white"/>
</svg>
