<?xml version="1.0" encoding="utf-8"?>
<!-- Generator: Adobe Illustrator 23.0.3, SVG Export Plug-In . SVG Version: 6.00 Build 0)  -->
<svg version="1.1" id="Layer_1" xmlns="http://www.w3.org/2000/svg" xmlns:xlink="http://www.w3.org/1999/xlink" x="0px" y="0px"
	 viewBox="0 0 396 72" style="enable-background:new 0 0 396 72;" xml:space="preserve">
<style type="text/css">
	.st0{fill:#1180C4;}
	.st1{fill-rule:evenodd;clip-rule:evenodd;fill:#D9E2F0;}
	.st2{fill-rule:evenodd;clip-rule:evenodd;fill:#C8E4E2;}
	.st3{fill-rule:evenodd;clip-rule:evenodd;fill:#9BD3D0;}
	.st4{fill-rule:evenodd;clip-rule:evenodd;fill:#CDDBEE;}
	.st5{fill-rule:evenodd;clip-rule:evenodd;fill:#91CFCE;}
	.st6{fill-rule:evenodd;clip-rule:evenodd;fill:#D0E1F0;}
	.st7{fill-rule:evenodd;clip-rule:evenodd;fill:#90C6CA;}
	.st8{fill-rule:evenodd;clip-rule:evenodd;fill:#BFD3EA;}
	.st9{fill-rule:evenodd;clip-rule:evenodd;fill:#9CBFE2;}
	.st10{fill-rule:evenodd;clip-rule:evenodd;fill:#B6CEE7;}
	.st11{fill-rule:evenodd;clip-rule:evenodd;fill:#8FBAE0;}
	.st12{fill-rule:evenodd;clip-rule:evenodd;fill:#B9D0E9;}
	.st13{fill-rule:evenodd;clip-rule:evenodd;fill:#8BB7DF;}
	.st14{fill-rule:evenodd;clip-rule:evenodd;fill:#98BDE0;}
	.st15{fill-rule:evenodd;clip-rule:evenodd;fill:#98BBE0;}
	.st16{fill-rule:evenodd;clip-rule:evenodd;fill:#A6D7D5;}
	.st17{fill-rule:evenodd;clip-rule:evenodd;fill:#CDE7E3;}
	.st18{fill-rule:evenodd;clip-rule:evenodd;fill:#A4C2E3;}
	.st19{fill-rule:evenodd;clip-rule:evenodd;fill:#80AFDC;}
	.st20{fill-rule:evenodd;clip-rule:evenodd;fill:#6BA3D6;}
	.st21{fill-rule:evenodd;clip-rule:evenodd;fill:#79A8D8;}
	.st22{fill-rule:evenodd;clip-rule:evenodd;fill:#BFD3E7;}
	.st23{fill-rule:evenodd;clip-rule:evenodd;fill:#A5C3E1;}
	.st24{fill-rule:evenodd;clip-rule:evenodd;fill:#8CB7DD;}
	.st25{fill-rule:evenodd;clip-rule:evenodd;fill:#82B0DA;}
	.st26{fill-rule:evenodd;clip-rule:evenodd;fill:#519AD0;}
	.st27{fill-rule:evenodd;clip-rule:evenodd;fill:#1386C6;}
	.st28{fill-rule:evenodd;clip-rule:evenodd;fill:#1181C0;}
	.st29{fill-rule:evenodd;clip-rule:evenodd;fill:#81BFC5;}
	.st30{fill-rule:evenodd;clip-rule:evenodd;fill:#64B7BC;}
	.st31{fill-rule:evenodd;clip-rule:evenodd;fill:#42A5B2;}
	.st32{fill-rule:evenodd;clip-rule:evenodd;fill:#2E9AB3;}
	.st33{fill-rule:evenodd;clip-rule:evenodd;fill:#0888B6;}
	.st34{fill-rule:evenodd;clip-rule:evenodd;fill:#1881C1;}
	.st35{fill-rule:evenodd;clip-rule:evenodd;fill:#6CC0BD;}
	.st36{fill-rule:evenodd;clip-rule:evenodd;fill:#81C4C5;}
	.st37{fill-rule:evenodd;clip-rule:evenodd;fill:#B2CBE4;}
	.st38{fill-rule:evenodd;clip-rule:evenodd;fill:#9CC0E1;}
	.st39{fill-rule:evenodd;clip-rule:evenodd;fill:#7AA9D6;}
	.st40{fill-rule:evenodd;clip-rule:evenodd;fill:#619ED1;}
	.st41{fill-rule:evenodd;clip-rule:evenodd;fill:#0D4F90;fill-opacity:0.2;}
	.st42{fill-rule:evenodd;clip-rule:evenodd;fill:#114D8F;fill-opacity:0.2;}
	.st43{fill-rule:evenodd;clip-rule:evenodd;fill:#76A1CC;}
	.st44{fill-rule:evenodd;clip-rule:evenodd;fill:#6A91C2;}
	.st45{fill-rule:evenodd;clip-rule:evenodd;fill:#4981B3;}
	.st46{fill-rule:evenodd;clip-rule:evenodd;fill:#406EA7;}
	.st47{fill-rule:evenodd;clip-rule:evenodd;fill:#055293;}
	.st48{fill-rule:evenodd;clip-rule:evenodd;fill:#1C4787;}
	.st49{fill-rule:evenodd;clip-rule:evenodd;fill:#1F4686;}
	.st50{fill-rule:evenodd;clip-rule:evenodd;fill:#114D8F;}
	.st51{fill-rule:evenodd;clip-rule:evenodd;fill:#0492A0;}
	.st52{fill-rule:evenodd;clip-rule:evenodd;fill:#018188;}
	.st53{fill-rule:evenodd;clip-rule:evenodd;fill:#067581;}
	.st54{fill-rule:evenodd;clip-rule:evenodd;fill:#056B80;}
	.st55{fill-rule:evenodd;clip-rule:evenodd;fill:#005782;}
	.st56{fill-rule:evenodd;clip-rule:evenodd;fill:#204580;}
	.st57{fill-rule:evenodd;clip-rule:evenodd;fill:#1A4888;}
	.st58{fill-rule:evenodd;clip-rule:evenodd;fill:#029DA2;}
	.st59{fill-rule:evenodd;clip-rule:evenodd;fill:#0598A6;}
	.st60{fill-rule:evenodd;clip-rule:evenodd;fill:#3A98BF;}
	.st61{fill-rule:evenodd;clip-rule:evenodd;fill:#467EB3;}
	.st62{fill-rule:evenodd;clip-rule:evenodd;fill:#2A5F9D;}
	.st63{fill-rule:evenodd;clip-rule:evenodd;fill:#19498A;}
</style>
<g>
	<g>
		<path class="st0" d="M392.5,50.2c-3.9,6.1-10.7,9.7-17.9,9.5c-8.2-0.3-15.5-7-18.7-18.3c-4-13.9-0.6-23.4,8.4-27.6
			c6.9-3.2,15,0.2,17.3,3.5c-3.2,1.5-3.7,5.5-3,7.9c0.7,2.2,2.4,3.9,4.6,4.5c2.2,0.7,4.6,0.2,6.4-1.2c2.4-1.8,3-4.8,2.4-7.8
			c-0.7-3.2-3.4-5.7-6.4-7.7c-4.4-2.8-9.5-4.2-14.7-4.1c-14.5-0.1-28,12.1-28,28.9c0,17.3,14.9,27.8,27.8,27.8
			c10.1,0.2,19.4-5.1,24.4-13.8C394.9,51.8,392.7,50.4,392.5,50.2 M332.4,58.1V29.5c0-6-0.7-10.2-3.5-13.9
			c-3.5-4.6-7.8-6.3-13.4-6.3c-7.9,0-14.3,4.8-18.5,10.4c-0.5-1.4-1.2-2.8-2.2-4c-3.5-4.6-7.8-6.3-13.4-6.3
			c-7.1-0.1-13,3.8-17.2,8.6v-7.6H247v1.7h1.1c2.3,0,3.8,1.4,3.8,4.2v41.8c0,2.8-1.5,4.2-3.8,4.2H247v1.7h22.1v-1.7h-1.1
			c-2.3,0-3.8-1.4-3.8-4.2V24.4c2.8-3.7,7.4-7.8,12.4-7.8c2.9-0.2,5.8,1.1,7.5,3.5c1.3,2,2,4.5,1.8,6.9v31.1c0,2.8-1.5,4.2-3.8,4.2
			h-1.1V64h22.1v-1.7h-1.1c-2.3,0-3.8-1.4-3.8-4.2V29.5c0-1.6-0.1-3.2-0.2-4.8c2.7-3.8,7.5-8.1,12.6-8.1c2.9-0.2,5.8,1.1,7.5,3.5
			c1.3,2,2,4.5,1.8,6.9v31.1c0,2.8-1.5,4.2-3.8,4.2h-1.1V64h22.1v-1.7h-1.1C333.9,62.3,332.4,60.9,332.4,58.1 M216,12.1h1.1
			c2.3,0,3.8,1.4,3.8,4.2v41.4c0,2.8-1.5,4.7-3.8,4.7H216v1.7h22.1v-1.7h-1.1c-2.3,0-3.8-1.4-3.8-4.2V16.3c0-2.8,1.5-4.2,3.8-4.2
			h1.1v-1.7H216L216,12.1L216,12.1z"/>
	</g>
	<path class="st1" d="M12,24c6,0,9-5,12-5s5.5,5,12,5s12-5,12-12S42.5,0,36,0s-9,5-12,5s-5.5-5-12-5S0,5,0,12S6,24,12,24z"/>
	<path class="st2" d="M12,48c6,0,9-5,12-5s5.5,5,12,5s12-5,12-12s-5.5-12-12-12s-9,5-12,5s-5.5-5-12-5S0,29,0,36S6,48,12,48z"/>
	<path class="st3" d="M12,72c6,0,9-5,12-5s5.5,5,12,5s12-5,12-12s-5.5-12-12-12s-9,5-12,5s-5.5-5-12-5S0,53,0,60S6,72,12,72z"/>
	<path class="st4" d="M36,24c6,0,9-5,12-5s5.5,5,12,5s12-5,12-12S66.5,0,60,0s-9,5-12,5s-5.5-5-12-5S24,5,24,12S30,24,36,24z"/>
	<path class="st5" d="M36,48c6,0,9-5,12-5s5.5,5,12,5s12-5,12-12s-5.5-12-12-12s-9,5-12,5s-5.5-5-12-5s-12,5-12,12S30,48,36,48z"/>
	<path class="st6" d="M36,72c6,0,9-5,12-5s5.5,5,12,5s12-5,12-12s-5.5-12-12-12s-9,5-12,5s-5.5-5-12-5s-12,5-12,12S30,72,36,72z"/>
	<path class="st4" d="M60,24c6,0,9-5,12-5s5.5,5,12,5s12-5,12-12S90.5,0,84,0s-9,5-12,5s-5.5-5-12-5S48,5,48,12S54,24,60,24z"/>
	<path class="st7" d="M60,48c6,0,9-5,12-5s5.5,5,12,5s12-5,12-12s-5.5-12-12-12s-9,5-12,5s-5.5-5-12-5s-12,5-12,12S54,48,60,48z"/>
	<path class="st6" d="M60,72c6,0,9-5,12-5s5.5,5,12,5s12-5,12-12s-5.5-12-12-12s-9,5-12,5s-5.5-5-12-5s-12,5-12,12S54,72,60,72z"/>
	<path class="st8" d="M84,24c6,0,9-5,12-5s5.5,5,12,5s12-5,12-12s-5.5-12-12-12s-9,5-12,5s-5.5-5-12-5S72,5,72,12S78,24,84,24z"/>
	<path class="st9" d="M84,48c6,0,9-5,12-5s5.5,5,12,5s12-5,12-12s-5.5-12-12-12s-9,5-12,5s-5.5-5-12-5s-12,5-12,12S78,48,84,48z"/>
	<path class="st4" d="M84,72c6,0,9-5,12-5s5.5,5,12,5s12-5,12-12s-5.5-12-12-12s-9,5-12,5s-5.5-5-12-5s-12,5-12,12S78,72,84,72z"/>
	<path class="st10" d="M108,24c6,0,9-5,12-5s5.5,5,12,5s12-5,12-12s-5.5-12-12-12s-9,5-12,5s-5.5-5-12-5S96,5,96,12S102,24,108,24z"
		/>
	<path class="st11" d="M108,48c6,0,9-5,12-5s5.5,5,12,5s12-5,12-12s-5.5-12-12-12s-9,5-12,5s-5.5-5-12-5s-12,5-12,12S102,48,108,48z
		"/>
	<path class="st12" d="M108,72c6,0,9-5,12-5s5.5,5,12,5s12-5,12-12s-5.5-12-12-12s-9,5-12,5s-5.5-5-12-5s-12,5-12,12S102,72,108,72z
		"/>
	<path class="st13" d="M132,24c6,0,9-5,12-5s5.5,5,12,5s12-5,12-12s-5.5-12-12-12s-9,5-12,5s-5.5-5-12-5s-12,5-12,12S126,24,132,24z
		 M132,48c6,0,9-5,12-5s5.5,5,12,5s12-5,12-12s-5.5-12-12-12s-9,5-12,5s-5.5-5-12-5s-12,5-12,12S126,48,132,48z"/>
	<path class="st14" d="M132,72c6,0,9-5,12-5s5.5,5,12,5s12-5,12-12s-5.5-12-12-12s-9,5-12,5s-5.5-5-12-5s-12,5-12,12S126,72,132,72z
		"/>
	<path class="st13" d="M156,24c6,0,9-5,12-5s5.5,5,12,5s12-5,12-12s-5.5-12-12-12s-9,5-12,5s-5.5-5-12-5s-12,5-12,12S150,24,156,24z
		 M156,48c6,0,9-5,12-5s5.5,5,12,5s12-5,12-12s-5.5-12-12-12s-9,5-12,5s-5.5-5-12-5s-12,5-12,12S150,48,156,48z"/>
	<path class="st15" d="M156,72c6,0,9-5,12-5s5.5,5,12,5s12-5,12-12s-5.5-12-12-12s-9,5-12,5s-5.5-5-12-5s-12,5-12,12S150,72,156,72z
		"/>
	<g>
		<path class="st1" d="M0,12c0,6,5,9,5,12s-5,5.5-5,12s5,12,12,12s12-5.5,12-12s-5-9-5-12s5-5.5,5-12S19,0,12,0S0,6,0,12z"/>
		<path class="st16" d="M0,36c0,6,5,9,5,12s-5,5.5-5,12s5,12,12,12s12-5.5,12-12s-5-9-5-12s5-5.5,5-12s-5-12-12-12S0,30,0,36z"/>
		<path class="st1" d="M24,12c0,6,5,9,5,12s-5,5.5-5,12s5,12,12,12s12-5.5,12-12s-5-9-5-12s5-5.5,5-12S43,0,36,0S24,6,24,12z"/>
		<path class="st17" d="M24,36c0,6,5,9,5,12s-5,5.5-5,12s5,12,12,12s12-5.5,12-12s-5-9-5-12s5-5.5,5-12s-5-12-12-12S24,30,24,36z"/>
		<path class="st4" d="M48,12c0,6,5,9,5,12s-5,5.5-5,12s5,12,12,12s12-5.5,12-12s-5-9-5-12s5-5.5,5-12S67,0,60,0S48,6,48,12z"/>
		<path class="st4" d="M48,36c0,6,5,9,5,12s-5,5.5-5,12s5,12,12,12s12-5.5,12-12s-5-9-5-12s5-5.5,5-12s-5-12-12-12S48,30,48,36z"/>
		<path class="st8" d="M72,12c0,6,5,9,5,12s-5,5.5-5,12s5,12,12,12s12-5.5,12-12s-5-9-5-12s5-5.5,5-12S91,0,84,0S72,6,72,12z"/>
		<path class="st8" d="M72,36c0,6,5,9,5,12s-5,5.5-5,12s5,12,12,12s12-5.5,12-12s-5-9-5-12s5-5.5,5-12s-5-12-12-12S72,30,72,36z"/>
		<path class="st18" d="M96,12c0,6,5,9,5,12s-5,5.5-5,12s5,12,12,12s12-5.5,12-12s-5-9-5-12s5-5.5,5-12s-5-12-12-12S96,6,96,12z"/>
		<path class="st8" d="M96,36c0,6,5,9,5,12s-5,5.5-5,12s5,12,12,12s12-5.5,12-12s-5-9-5-12s5-5.5,5-12s-5-12-12-12S96,30,96,36z"/>
		<path class="st19" d="M120,12c0,6,5,9,5,12s-5,5.5-5,12s5,12,12,12s12-5.5,12-12s-5-9-5-12s5-5.5,5-12s-5-12-12-12S120,6,120,12z"
			/>
		<path class="st18" d="M120,36c0,6,5,9,5,12s-5,5.5-5,12s5,12,12,12s12-5.5,12-12s-5-9-5-12s5-5.5,5-12s-5-12-12-12S120,30,120,36z
			"/>
		<path class="st19" d="M144,12c0,6,5,9,5,12s-5,5.5-5,12s5,12,12,12s12-5.5,12-12s-5-9-5-12s5-5.5,5-12s-5-12-12-12S144,6,144,12z"
			/>
		<path class="st13" d="M144,36c0,6,5,9,5,12s-5,5.5-5,12s5,12,12,12s12-5.5,12-12s-5-9-5-12s5-5.5,5-12s-5-12-12-12S144,30,144,36z
			"/>
		<path class="st20" d="M168,12c0,6,5,9,5,12s-5,5.5-5,12s5,12,12,12s12-5.5,12-12s-5-9-5-12s5-5.5,5-12s-5-12-12-12S168,6,168,12z"
			/>
		<path class="st21" d="M168,36c0,6,5,9,5,12s-5,5.5-5,12s5,12,12,12s12-5.5,12-12s-5-9-5-12s5-5.5,5-12s-5-12-12-12S168,30,168,36z
			"/>
	</g>
	<g>
		<circle class="st22" cx="12" cy="12" r="12"/>
		<circle class="st23" cx="36" cy="12" r="12"/>
		<circle class="st24" cx="60" cy="12" r="12"/>
		<circle class="st25" cx="84" cy="12" r="12"/>
		<circle class="st26" cx="108" cy="12" r="12"/>
		<circle class="st27" cx="132" cy="12" r="12"/>
		<circle class="st28" cx="156" cy="12" r="12"/>
		<circle class="st27" cx="180" cy="12" r="12"/>
		<circle class="st29" cx="12" cy="36" r="12"/>
		<circle class="st30" cx="36" cy="36" r="12"/>
		<circle class="st31" cx="60" cy="36" r="12"/>
		<circle class="st32" cx="84" cy="36" r="12"/>
		<circle class="st33" cx="108" cy="36" r="12"/>
		<circle class="st34" cx="132" cy="36" r="12"/>
		<circle class="st34" cx="156" cy="36" r="12"/>
		<circle class="st34" cx="180" cy="36" r="12"/>
		<circle class="st35" cx="12" cy="60" r="12"/>
		<circle class="st36" cx="36" cy="60" r="12"/>
		<circle class="st37" cx="60" cy="60" r="12"/>
		<circle class="st38" cx="84" cy="60" r="12"/>
		<circle class="st39" cx="108" cy="60" r="12"/>
		<circle class="st40" cx="132" cy="60" r="12"/>
		<circle class="st27" cx="156" cy="60" r="12"/>
		<circle class="st27" cx="180" cy="60" r="12"/>
	</g>
	<g>
		<path class="st41" d="M12,40.8c2.8,0,4.7-2.3,4.8-4.7c0-2.5-3.7-9.5-3.7-12.5c0-3,3.7-8.9,3.7-11.5s-2-4.7-4.8-4.7S7.2,9.4,7.2,12
			s3.7,8.5,3.7,11.5c0,3-3.7,10-3.7,12.5C7.2,38.5,9.2,40.8,12,40.8z"/>
		<path class="st41" d="M12,64.8c2.8,0,4.7-2.3,4.8-4.7c0-2.5-3.7-9.5-3.7-12.5c0-3,3.7-8.9,3.7-11.5s-2-4.8-4.8-4.8
			S7.2,33.4,7.2,36s3.7,8.5,3.7,11.5c0,3-3.7,10-3.7,12.5C7.2,62.5,9.2,64.8,12,64.8z M36,40.8c2.8,0,4.7-2.3,4.8-4.7
			s-3.7-9.5-3.7-12.5c0-3,3.7-8.9,3.7-11.5s-2-4.7-4.8-4.7s-4.8,2.2-4.8,4.7s3.7,8.5,3.7,11.5c0,3-3.7,10-3.7,12.5
			S33.2,40.8,36,40.8z"/>
		<path class="st41" d="M36,64.8c2.8,0,4.7-2.3,4.8-4.7s-3.7-9.5-3.7-12.5c0-3,3.7-8.9,3.7-11.5s-2-4.8-4.8-4.8s-4.8,2.2-4.8,4.8
			s3.7,8.5,3.7,11.5c0,3-3.7,10-3.7,12.5S33.2,64.8,36,64.8z M60,40.8c2.8,0,4.7-2.3,4.8-4.7s-3.7-9.5-3.7-12.5
			c0-3,3.7-8.9,3.7-11.5s-2-4.7-4.8-4.7s-4.8,2.2-4.8,4.7s3.7,8.5,3.7,11.5c0,3-3.7,10-3.7,12.5S57.2,40.8,60,40.8z"/>
		<path class="st41" d="M60,64.8c2.8,0,4.7-2.3,4.8-4.7s-3.7-9.5-3.7-12.5c0-3,3.7-8.9,3.7-11.5s-2-4.8-4.8-4.8s-4.8,2.2-4.8,4.8
			s3.7,8.5,3.7,11.5c0,3-3.7,10-3.7,12.5S57.2,64.8,60,64.8z M84,40.8c2.8,0,4.7-2.3,4.8-4.7s-3.7-9.5-3.7-12.5s3.7-8.9,3.7-11.5
			s-2-4.7-4.8-4.7s-4.8,2.2-4.8,4.7s3.7,8.5,3.7,11.5c0,3-3.7,10-3.7,12.5S81.2,40.8,84,40.8z"/>
		<path class="st41" d="M84,64.8c2.8,0,4.7-2.3,4.8-4.7s-3.7-9.5-3.7-12.5s3.7-8.9,3.7-11.5s-2-4.8-4.8-4.8s-4.8,2.2-4.8,4.8
			s3.7,8.5,3.7,11.5c0,3-3.7,10-3.7,12.5S81.2,64.8,84,64.8z M108,40.8c2.8,0,4.7-2.3,4.8-4.7s-3.7-9.5-3.7-12.5s3.7-8.9,3.7-11.5
			s-2-4.7-4.8-4.7s-4.8,2.2-4.8,4.7s3.7,8.5,3.7,11.5c0,3-3.7,10-3.7,12.5S105.2,40.8,108,40.8z"/>
		<path class="st41" d="M108,64.8c2.8,0,4.7-2.3,4.8-4.7s-3.7-9.5-3.7-12.5s3.7-8.9,3.7-11.5s-2-4.8-4.8-4.8s-4.8,2.2-4.8,4.8
			s3.7,8.5,3.7,11.5c0,3-3.7,10-3.7,12.5S105.2,64.8,108,64.8z M132,40.8c2.8,0,4.7-2.3,4.8-4.7s-3.7-9.5-3.7-12.5s3.7-8.9,3.7-11.5
			s-2-4.7-4.8-4.7s-4.8,2.2-4.8,4.7s3.7,8.5,3.7,11.5c0,3-3.7,10-3.7,12.5S129.2,40.8,132,40.8z"/>
		<path class="st41" d="M132,64.8c2.8,0,4.7-2.3,4.8-4.7s-3.7-9.5-3.7-12.5s3.7-8.9,3.7-11.5s-2-4.8-4.8-4.8s-4.8,2.2-4.8,4.8
			s3.7,8.5,3.7,11.5c0,3-3.7,10-3.7,12.5S129.2,64.8,132,64.8z M156,40.8c2.8,0,4.7-2.3,4.8-4.7s-3.7-9.5-3.7-12.5s3.7-8.9,3.7-11.5
			s-2-4.7-4.8-4.7s-4.8,2.2-4.8,4.7s3.7,8.5,3.7,11.5c0,3-3.7,10-3.7,12.5C151.2,38.5,153.2,40.8,156,40.8z"/>
		<path class="st41" d="M156,64.8c2.8,0,4.7-2.3,4.8-4.7s-3.7-9.5-3.7-12.5s3.7-8.9,3.7-11.5s-2-4.8-4.8-4.8s-4.8,2.2-4.8,4.8
			s3.7,8.5,3.7,11.5c0,3-3.7,10-3.7,12.5C151.2,62.5,153.2,64.8,156,64.8z M180,40.8c2.8,0,4.7-2.3,4.8-4.7s-3.7-9.5-3.7-12.5
			s3.7-8.9,3.7-11.5s-2-4.7-4.8-4.7s-4.8,2.2-4.8,4.7s3.7,8.5,3.7,11.5c0,3-3.7,10-3.7,12.5C175.2,38.5,177.2,40.8,180,40.8z"/>
		<path class="st41" d="M180,64.8c2.8,0,4.7-2.3,4.8-4.7s-3.7-9.5-3.7-12.5s3.7-8.9,3.7-11.5s-2-4.8-4.8-4.8s-4.8,2.2-4.8,4.8
			s3.7,8.5,3.7,11.5c0,3-3.7,10-3.7,12.5C175.2,62.5,177.2,64.8,180,64.8z"/>
	</g>
	<g>
		<path class="st42" d="M7.2,12c0,2.8,2.3,4.7,4.7,4.8c2.5,0,9.5-3.7,12.5-3.7c3,0,8.9,3.7,11.5,3.7s4.8-2,4.8-4.8
			c0-2.8-2.2-4.7-4.8-4.7s-8.5,3.7-11.5,3.7c-3,0-10-3.7-12.5-3.7C9.5,7.2,7.2,9.2,7.2,12z"/>
		<path class="st42" d="M31.2,12c0,2.8,2.3,4.7,4.7,4.8c2.5,0,9.5-3.7,12.5-3.7c3,0,8.9,3.7,11.5,3.7s4.8-2,4.8-4.8
			c0-2.8-2.2-4.7-4.8-4.7s-8.5,3.7-11.5,3.7c-3,0-10-3.7-12.5-3.7C33.5,7.2,31.2,9.2,31.2,12z"/>
		<path class="st42" d="M55.2,12c0,2.8,2.3,4.7,4.7,4.8c2.5,0,9.5-3.7,12.5-3.7c3,0,8.9,3.7,11.5,3.7s4.8-2,4.8-4.8
			c0-2.8-2.2-4.7-4.8-4.7s-8.5,3.7-11.5,3.7c-3,0-10-3.7-12.5-3.7C57.5,7.2,55.2,9.2,55.2,12z"/>
		<path class="st42" d="M79.2,12c0,2.8,2.3,4.7,4.7,4.8c2.5,0,9.5-3.7,12.5-3.7c3,0,8.9,3.7,11.5,3.7s4.8-2,4.8-4.8
			c0-2.8-2.2-4.7-4.8-4.7s-8.5,3.7-11.5,3.7c-3,0-10-3.7-12.5-3.7C81.5,7.2,79.2,9.2,79.2,12z"/>
		<path class="st42" d="M103.2,12c0,2.8,2.3,4.7,4.7,4.8c2.5,0,9.5-3.7,12.5-3.7c3,0,8.9,3.7,11.5,3.7s4.8-2,4.8-4.8
			c0-2.8-2.2-4.7-4.8-4.7s-8.5,3.7-11.5,3.7c-3,0-10-3.7-12.5-3.7C105.5,7.2,103.2,9.2,103.2,12z"/>
		<path class="st42" d="M127.2,12c0,2.8,2.3,4.7,4.7,4.8c2.5,0,9.5-3.7,12.5-3.7c3,0,8.9,3.7,11.5,3.7s4.8-2,4.8-4.8
			c0-2.8-2.2-4.7-4.8-4.7s-8.5,3.7-11.5,3.7c-3,0-10-3.7-12.5-3.7C129.5,7.2,127.2,9.2,127.2,12z"/>
		<path class="st42" d="M151.2,12c0,2.8,2.3,4.7,4.7,4.8c2.5,0,9.5-3.7,12.5-3.7c3,0,8.9,3.7,11.5,3.7s4.8-2,4.8-4.8
			c0-2.8-2.2-4.7-4.8-4.7s-8.5,3.7-11.5,3.7c-3,0-10-3.7-12.5-3.7C153.5,7.2,151.2,9.2,151.2,12z M7.2,36c0,2.8,2.3,4.7,4.7,4.8
			s9.5-3.7,12.5-3.7c3,0,8.9,3.7,11.5,3.7s4.8-2,4.8-4.8c0-2.8-2.2-4.8-4.8-4.8s-8.5,3.7-11.5,3.7c-3,0-10-3.7-12.5-3.7
			C9.5,31.2,7.2,33.2,7.2,36z"/>
		<path class="st42" d="M31.2,36c0,2.8,2.3,4.7,4.7,4.8s9.5-3.7,12.5-3.7c3,0,8.9,3.7,11.5,3.7s4.8-2,4.8-4.8c0-2.8-2.2-4.8-4.8-4.8
			s-8.5,3.7-11.5,3.7c-3,0-10-3.7-12.5-3.7C33.5,31.2,31.2,33.2,31.2,36z"/>
		<path class="st42" d="M55.2,36c0,2.8,2.3,4.7,4.7,4.8s9.5-3.7,12.5-3.7c3,0,8.9,3.7,11.5,3.7s4.8-2,4.8-4.8c0-2.8-2.2-4.8-4.8-4.8
			s-8.5,3.7-11.5,3.7c-3,0-10-3.7-12.5-3.7C57.5,31.2,55.2,33.2,55.2,36z"/>
		<path class="st42" d="M79.2,36c0,2.8,2.3,4.7,4.7,4.8s9.5-3.7,12.5-3.7c3,0,8.9,3.7,11.5,3.7s4.8-2,4.8-4.8c0-2.8-2.2-4.8-4.8-4.8
			s-8.5,3.7-11.5,3.7c-3,0-10-3.7-12.5-3.7C81.5,31.2,79.2,33.2,79.2,36z"/>
		<path class="st42" d="M103.2,36c0,2.8,2.3,4.7,4.7,4.8s9.5-3.7,12.5-3.7c3,0,8.9,3.7,11.5,3.7s4.8-2,4.8-4.8
			c0-2.8-2.2-4.8-4.8-4.8s-8.5,3.7-11.5,3.7c-3,0-10-3.7-12.5-3.7C105.5,31.2,103.2,33.2,103.2,36z"/>
		<path class="st42" d="M127.2,36c0,2.8,2.3,4.7,4.7,4.8c2.5,0,9.5-3.7,12.5-3.7c3,0,8.9,3.7,11.5,3.7s4.8-2,4.8-4.8
			c0-2.8-2.2-4.8-4.8-4.8s-8.5,3.7-11.5,3.7c-3,0-10-3.7-12.5-3.7C129.5,31.2,127.2,33.2,127.2,36z"/>
		<path class="st42" d="M151.2,36c0,2.8,2.3,4.7,4.7,4.8c2.5,0,9.5-3.7,12.5-3.7c3,0,8.9,3.7,11.5,3.7s4.8-2,4.8-4.8
			c0-2.8-2.2-4.8-4.8-4.8s-8.5,3.7-11.5,3.7c-3,0-10-3.7-12.5-3.7C153.5,31.2,151.2,33.2,151.2,36z M7.2,60c0,2.8,2.3,4.7,4.7,4.7
			s9.5-3.7,12.5-3.7c3,0,8.9,3.7,11.5,3.7s4.8-2,4.8-4.7c0-2.8-2.2-4.8-4.8-4.8s-8.5,3.7-11.5,3.7c-3,0-10-3.7-12.5-3.7
			C9.5,55.2,7.2,57.2,7.2,60z"/>
		<path class="st42" d="M31.2,60c0,2.8,2.3,4.7,4.7,4.7s9.5-3.7,12.5-3.7c3,0,8.9,3.7,11.5,3.7s4.8-2,4.8-4.7c0-2.8-2.2-4.8-4.8-4.8
			s-8.5,3.7-11.5,3.7c-3,0-10-3.7-12.5-3.7C33.5,55.2,31.2,57.2,31.2,60z"/>
		<path class="st42" d="M55.2,60c0,2.8,2.3,4.7,4.7,4.7s9.5-3.7,12.5-3.7c3,0,8.9,3.7,11.5,3.7s4.8-2,4.8-4.7c0-2.8-2.2-4.8-4.8-4.8
			s-8.5,3.7-11.5,3.7c-3,0-10-3.7-12.5-3.7C57.5,55.2,55.2,57.2,55.2,60z"/>
		<path class="st42" d="M79.2,60c0,2.8,2.3,4.7,4.7,4.7s9.5-3.7,12.5-3.7c3,0,8.9,3.7,11.5,3.7s4.8-2,4.8-4.7c0-2.8-2.2-4.8-4.8-4.8
			s-8.5,3.7-11.5,3.7c-3,0-10-3.7-12.5-3.7C81.5,55.2,79.2,57.2,79.2,60z"/>
		<path class="st42" d="M103.2,60c0,2.8,2.3,4.7,4.7,4.7s9.5-3.7,12.5-3.7c3,0,8.9,3.7,11.5,3.7s4.8-2,4.8-4.7
			c0-2.8-2.2-4.8-4.8-4.8s-8.5,3.7-11.5,3.7c-3,0-10-3.7-12.5-3.7C105.5,55.2,103.2,57.2,103.2,60z"/>
		<path class="st42" d="M127.2,60c0,2.8,2.3,4.7,4.7,4.7c2.5,0,9.5-3.7,12.5-3.7c3,0,8.9,3.7,11.5,3.7s4.8-2,4.8-4.7
			c0-2.8-2.2-4.8-4.8-4.8s-8.5,3.7-11.5,3.7c-3,0-10-3.7-12.5-3.7C129.5,55.2,127.2,57.2,127.2,60z"/>
		<path class="st42" d="M151.2,60c0,2.8,2.3,4.7,4.7,4.7c2.5,0,9.5-3.7,12.5-3.7c3,0,8.9,3.7,11.5,3.7s4.8-2,4.8-4.7
			c0-2.8-2.2-4.8-4.8-4.8s-8.5,3.7-11.5,3.7c-3,0-10-3.7-12.5-3.7C153.5,55.2,151.2,57.2,151.2,60z"/>
	</g>
	<g transform="translate(7.25 7.25)">
		<circle class="st43" cx="4.8" cy="4.8" r="4.8"/>
		<circle class="st44" cx="28.8" cy="4.8" r="4.8"/>
		<circle class="st45" cx="52.8" cy="4.8" r="4.8"/>
		<circle class="st46" cx="76.8" cy="4.8" r="4.8"/>
		<circle class="st47" cx="100.8" cy="4.8" r="4.8"/>
		<circle class="st48" cx="124.8" cy="4.8" r="4.8"/>
		<circle class="st49" cx="148.8" cy="4.8" r="4.8"/>
		<circle class="st50" cx="172.8" cy="4.8" r="4.8"/>
		<circle class="st51" cx="4.8" cy="28.8" r="4.8"/>
		<circle class="st52" cx="28.8" cy="28.8" r="4.8"/>
		<circle class="st53" cx="52.8" cy="28.8" r="4.8"/>
		<circle class="st54" cx="76.8" cy="28.8" r="4.8"/>
		<circle class="st55" cx="100.8" cy="28.8" r="4.8"/>
		<circle class="st56" cx="124.8" cy="28.8" r="4.8"/>
		<circle class="st49" cx="148.8" cy="28.8" r="4.8"/>
		<circle class="st57" cx="172.8" cy="28.8" r="4.8"/>
		<circle class="st58" cx="4.8" cy="52.8" r="4.8"/>
		<circle class="st59" cx="28.8" cy="52.8" r="4.8"/>
		<circle class="st60" cx="52.8" cy="52.8" r="4.8"/>
		<circle class="st61" cx="76.8" cy="52.8" r="4.8"/>
		<circle class="st62" cx="100.8" cy="52.8" r="4.8"/>
		<circle class="st48" cx="124.8" cy="52.8" r="4.8"/>
		<circle class="st49" cx="148.8" cy="52.8" r="4.8"/>
		<circle class="st63" cx="172.8" cy="52.8" r="4.8"/>
	</g>
</g>
</svg>
