<?xml version="1.0" encoding="UTF-8" standalone="no"?>
<svg width="66px" height="66px" viewBox="0 0 66 66" version="1.1" xmlns="http://www.w3.org/2000/svg" xmlns:xlink="http://www.w3.org/1999/xlink" xmlns:sketch="http://www.bohemiancoding.com/sketch/ns">
    <!-- Generator: Sketch 3.3.2 (12043) - http://www.bohemiancoding.com/sketch -->
    <title>Slice 1</title>
    <desc>Created with Sketch.</desc>
    <defs></defs>
    <g id="Page-1" stroke="none" stroke-width="1" fill="none" fill-rule="evenodd" sketch:type="MSPage">
        <g id="acm-logo-flat" sketch:type="MSLayerGroup">
            <g id="Page-1" sketch:type="MSShapeGroup">
                <g id="acm-logo-flat-white">
                    <g id="Page-1">
                        <g id="acm-logo">
                            <g id="layer1" transform="translate(0.660370, 0.726750)">
                                <rect id="rect12178" fill="#333333" transform="translate(32.428592, 32.362191) rotate(-45.000000) translate(-32.428592, -32.362191) " x="9.73828654" y="9.6718855" width="45.3806109" height="45.3806109"></rect>
                                <path d="M50.0584422,32.3813264 C50.0584422,42.113188 42.1692081,50.0024198 32.4373488,50.0024198 C22.7054871,50.0024198 14.816253,42.113188 14.816253,32.3813264 C14.816253,22.6494649 22.7054871,14.7602324 32.4373488,14.7602324 C42.1692081,14.7602324 50.0584422,22.6494649 50.0584422,32.3813264 L50.0584422,32.3813264 L50.0584422,32.3813264 Z" id="path12188" fill="#FFFFFF"></path>
                                <path d="M32.4373531,48.1662093 C23.7196022,48.1662093 16.6524675,41.0990766 16.6524675,32.3813257 C16.6524675,23.663575 23.7196022,16.5964418 32.4373531,16.5964418 C41.1551019,16.5964418 48.2222367,23.663575 48.2222367,32.3813257 C48.2222367,41.0990766 41.1551019,48.1662093 32.4373531,48.1662093 L32.4373531,48.1662093 L32.4373531,48.1662093 Z" id="path12190" fill="#333333" transform="translate(32.437352, 32.381326) rotate(75.000003) translate(-32.437352, -32.381326) "></path>
                                <path d="M20.3737,30.6746 L18.33532,30.67526 C18.40222,29.83413 18.78884,28.68907 19.28854,28.29591 C19.78823,27.90276 20.53064,27.70619 21.51576,27.70618 C22.41045,27.70619 23.51281,27.82573 23.95065,28.0648 C24.38847,28.29857 24.69542,28.59875 24.87152,28.96533 C25.05235,29.32662 25.14278,29.99338 25.14278,30.96564 L25.12128,33.57958 C25.12127,34.32338 25.15008,34.87364 25.21408,35.22923 C25.25108,35.43524 25.31348,35.80112 25.57108,36.00133 C25.62998,36.04713 25.59458,36.2291 25.60108,36.37235 C25.44334,36.39455 24.07218,36.38395 23.31818,36.39535 C23.26578,36.24659 23.20157,36.0261 23.12545,35.73389 C23.09215,35.60107 23.06835,35.51341 23.05405,35.4709 C22.71139,35.8428 22.09248,36.27092 21.70224,36.45687 C21.312,36.64282 20.94148,36.60956 20.4989,36.60956 C19.71841,36.60956 19.14803,36.31576 18.69593,35.84291 C18.24857,35.37006 18.0249,34.77236 18.0249,34.04981 C18.0249,33.57165 18.12723,33.14662 18.33186,32.77472 C18.53648,32.39751 18.82204,32.11061 19.18848,31.91403 C19.55968,31.71214 20.0927,31.53682 20.78751,31.38805 C21.72504,31.19148 22.37464,31.00819 22.73634,30.83817 L22.73634,30.61503 C22.73633,30.18469 22.64114,29.8792 22.4508,29.69855 C22.26042,29.51261 22.13065,29.52292 21.60241,29.52292 C21.24548,29.52292 21.0015,29.64852 20.80163,29.8079 C20.60176,29.96198 20.49732,30.2815 20.37359,30.67465 M23.02325,32.35394 C22.76627,32.44954 22.54298,32.58675 21.91732,32.68514 C21.35184,32.77404 20.7784,32.97109 20.60707,33.09859 C20.34533,33.3058 20.21445,33.56879 20.21445,33.88756 C20.21445,34.20102 20.13555,34.40312 20.34493,34.63157 C20.55431,34.86003 20.82082,34.97425 21.14444,34.97425 C21.50612,34.97425 21.85115,34.84143 22.17953,34.57579 C22.42223,34.3739 22.85709,34.24161 22.93324,33.9494 C22.98554,33.75814 23.01174,33.39421 23.01174,32.8576 L23.02324,32.35394 M33.51941,30.9622 L31.34694,30.9592 C31.28034,30.51824 31.10505,30.1288 30.86712,29.90566 C30.63393,29.68252 30.31786,29.63981 29.94191,29.6398 C29.44221,29.63981 29.07688,29.77635 28.77706,30.16418 C28.482,30.54672 28.31152,31.07481 28.31152,31.978 C28.31152,32.98214 28.46142,33.69141 28.76125,34.10581 C29.06582,34.52022 29.47272,34.72742 29.98194,34.72742 C30.36266,34.72742 30.67437,34.60788 30.91709,34.3688 C31.15979,34.12441 31.23931,33.92539 31.33925,33.33566 L33.45868,33.34266 C33.25402,34.35211 32.82698,35.29813 32.24639,35.81348 C31.66578,36.32883 30.85326,36.64388 29.87766,36.64388 C28.76881,36.64388 27.76886,36.33372 27.10736,35.55273 C26.45062,34.77173 26.12225,33.51842 26.12225,32.13706 C26.12225,30.73978 26.57924,29.65329 27.24074,28.87761 C27.90224,28.09662 28.79694,27.70612 29.92483,27.70611 C30.84807,27.70612 31.77606,27.96369 32.3186,28.40997 C32.86588,28.85094 33.3503,29.64044 33.51941,30.96209 M34.44957,27.92033 L36.52797,27.89743 L36.52797,29.05298 C37.18948,28.15511 37.79347,27.77503 38.70721,27.77502 C39.19262,27.77503 39.72856,27.8866 40.08549,28.10973 C40.44241,28.33288 40.73509,28.67025 40.96353,29.12184 C41.29665,28.67025 41.65596,28.33288 42.04145,28.10973 C42.42692,27.8866 42.83857,27.77503 43.27641,27.77502 C43.8332,27.77503 44.44207,27.90254 44.82756,28.15755 C45.21303,28.40726 45.50095,28.77651 45.69132,29.26528 C45.82931,29.62657 45.89833,30.21098 45.89833,31.01854 L45.89833,36.42971 L43.75468,36.42971 L43.75468,31.59233 C43.75467,30.7529 43.54794,30.3487 43.40995,30.1043 C43.22433,29.78553 42.9388,29.62615 42.55333,29.62614 C42.27255,29.62615 42.00841,29.72174 41.76095,29.91304 C41.51349,30.10431 41.47271,30.24817 41.36327,30.62007 C41.25381,30.98666 41.19907,31.56843 41.1991,32.36535 L41.1991,36.42971 L39.07841,36.42971 L39.07841,31.79156 C39.07841,30.96807 38.92796,30.59745 38.85657,30.35836 C38.78517,30.11929 38.67333,29.94131 38.52106,29.82442 C38.37352,29.70754 38.17127,29.6491 37.91429,29.64909 C37.60494,29.6491 37.32654,29.74209 37.07908,29.92802 C36.83161,30.11398 36.87709,30.13787 36.76764,30.48851 C36.66294,30.83917 36.68504,31.43581 36.68504,32.24868 L36.68504,36.36086 L34.44959,36.38376 L34.44959,27.92033" id="flowRoot12200" fill="#FFFFFF"></path>
                            </g>
                        </g>
                    </g>
                </g>
            </g>
        </g>
    </g>
</svg>