<?xml version="1.0" encoding="UTF-8"?><svg id="ACM_Diamond" xmlns="http://www.w3.org/2000/svg" viewBox="0 0 705.96 363.27"><defs><style>.cls-1{fill:#fff;}.cls-2{fill:#0053b3;}</style></defs><circle id="Background" class="cls-1" cx="181.63" cy="180.99" r="135.22"/><g><path class="cls-2" d="m87.04,194.37c2.09,1.24,4.46,1.86,7.1,1.86,4.18,0,7.53-1.36,10.05-4.1,2.52-2.73,3.78-6.27,3.78-10.62,0-2.82-.56-5.31-1.66-7.49-1.11-2.18-2.73-3.88-4.86-5.12-2.13-1.24-4.57-1.86-7.3-1.86s-5.01.62-7.1,1.86c-2.09,1.24-3.76,2.97-4.99,5.18-1.24,2.22-1.86,4.74-1.86,7.55s.62,5.33,1.86,7.55c1.24,2.22,2.9,3.95,4.99,5.18Z"/><path class="cls-2" d="m345.8,139.46L223.81,17.47c-23.29-23.29-61.06-23.29-84.35,0L17.47,139.46c-23.29,23.29-23.29,61.06,0,84.35l121.99,121.99c23.29,23.29,61.06,23.29,84.35,0l121.99-121.99c23.29-23.29,23.29-61.06,0-84.35ZM181.63,60.23c51.08,0,94.79,31.55,112.71,76.22h-19.68c-16.77-34.47-52.13-58.22-93.03-58.22s-76.26,23.76-93.03,58.22h-19.68c17.93-44.67,61.63-76.22,112.71-76.22Zm-23.55,128.96c1.24,2.22,2.96,3.95,5.18,5.18,2.22,1.24,4.65,1.86,7.3,1.86s4.84-.43,6.85-1.28c2-.85,3.73-2.09,5.18-3.71l12.67,12.54c-3.33,3.41-7.02,6-11.07,7.74-4.05,1.75-8.64,2.62-13.76,2.62-6.49,0-12.33-1.41-17.54-4.22-5.21-2.82-9.28-6.7-12.22-11.65-2.94-4.95-4.42-10.5-4.42-16.64s1.49-11.8,4.48-16.7c2.99-4.91,7.08-8.77,12.29-11.58,5.2-2.82,11.05-4.22,17.54-4.22,4.95,0,9.45.83,13.5,2.5,4.05,1.66,7.66,4.12,10.82,7.36l-12.67,12.8c-1.45-1.62-3.14-2.82-5.06-3.58s-4.12-1.15-6.59-1.15c-2.73,0-5.18.62-7.36,1.86-2.18,1.24-3.88,2.94-5.12,5.12-1.24,2.18-1.86,4.67-1.86,7.49s.62,5.46,1.86,7.68Zm-97.85-7.55c0-6.23,1.3-11.8,3.9-16.7,2.6-4.91,6.14-8.75,10.62-11.52,4.48-2.77,9.58-4.16,15.3-4.16,4.18,0,7.96.81,11.33,2.43,2.21,1.06,4.15,2.4,5.82,3.99v-5.14h19.33v62.21h-19.33v-5.04c-1.64,1.55-3.53,2.85-5.7,3.89-3.37,1.62-7.19,2.43-11.46,2.43-5.63,0-10.71-1.43-15.23-4.29-4.52-2.86-8.09-6.7-10.69-11.52-2.6-4.82-3.9-10.35-3.9-16.58Zm121.41,121.41c-51.08,0-94.79-31.55-112.71-76.22h19.68c16.77,34.47,52.13,58.22,93.03,58.22s76.26-23.76,93.03-58.22h19.68c-17.93,44.67-61.63,76.22-112.71,76.22Zm121.41-90.3h-19.71v-36.35c0-3.07-.96-5.48-2.88-7.23-1.92-1.75-4.25-2.62-6.98-2.62-1.88,0-3.61.41-5.18,1.22-1.58.81-2.8,1.94-3.65,3.39-.85,1.45-1.28,3.2-1.28,5.25v36.35h-19.71v-36.35c0-3.07-.96-5.48-2.88-7.23-1.92-1.75-4.29-2.62-7.1-2.62-1.96,0-3.71.41-5.25,1.22-1.54.81-2.75,1.94-3.65,3.39-.9,1.45-1.34,3.2-1.34,5.25v36.35h-19.71v-62.21h19.71v4.67c1.33-1.18,2.8-2.21,4.42-3.07,3.63-1.92,7.79-2.88,12.48-2.88,4.27,0,8.13.98,11.58,2.94,2.51,1.42,4.65,3.26,6.44,5.49,1.91-2.19,4.17-3.98,6.81-5.36,3.92-2.05,8.32-3.07,13.18-3.07s8.92,1,12.67,3.01c3.75,2.01,6.7,4.84,8.83,8.51,2.13,3.67,3.2,8.11,3.2,13.31v38.66Z"/></g><g id="UIUC_reference"><path class="cls-2" d="m448.05,228.22c-7.51,0-14.1-1.6-19.78-4.8-5.68-3.2-10.11-7.59-13.31-13.18-3.2-5.59-4.8-11.92-4.8-19.01v-54.78h20.22v55.81c0,3.67.79,6.83,2.37,9.47,1.58,2.65,3.69,4.65,6.34,6.02,2.64,1.37,5.63,2.05,8.96,2.05s6.16-.68,8.77-2.05c2.6-1.36,4.63-3.37,6.08-6.02,1.45-2.64,2.18-5.76,2.18-9.34v-55.94h20.35v54.91c0,7.08-1.58,13.4-4.74,18.94-3.16,5.55-7.55,9.92-13.18,13.12-5.63,3.2-12.12,4.8-19.46,4.8Z"/><path class="cls-2" d="m501.29,226.82v-90.37h20.22v90.37h-20.22Z"/><path class="cls-2" d="m575.41,228.22c-7.51,0-14.1-1.6-19.78-4.8-5.68-3.2-10.11-7.59-13.31-13.18-3.2-5.59-4.8-11.92-4.8-19.01v-54.78h20.22v55.81c0,3.67.79,6.83,2.37,9.47,1.58,2.65,3.69,4.65,6.34,6.02,2.64,1.37,5.63,2.05,8.96,2.05s6.16-.68,8.77-2.05c2.6-1.36,4.63-3.37,6.08-6.02,1.45-2.64,2.18-5.76,2.18-9.34v-55.94h20.35v54.91c0,7.08-1.58,13.4-4.74,18.94-3.16,5.55-7.55,9.92-13.18,13.12-5.63,3.2-12.12,4.8-19.46,4.8Z"/><path class="cls-2" d="m671.53,228.22c-6.74,0-12.99-1.17-18.75-3.52s-10.8-5.65-15.1-9.92c-4.31-4.27-7.66-9.24-10.05-14.91-2.39-5.67-3.58-11.8-3.58-18.37s1.19-12.69,3.58-18.37c2.39-5.67,5.74-10.6,10.05-14.78,4.31-4.18,9.32-7.44,15.04-9.79,5.72-2.35,11.99-3.52,18.82-3.52,7.17,0,13.55,1.15,19.14,3.46,5.59,2.3,10.47,5.46,14.66,9.47l-13.57,13.7c-2.3-2.56-5.14-4.56-8.51-6.02-3.37-1.45-7.28-2.18-11.71-2.18-3.93,0-7.51.66-10.75,1.98-3.24,1.32-6.06,3.22-8.45,5.7-2.39,2.48-4.22,5.46-5.5,8.96-1.28,3.5-1.92,7.3-1.92,11.39s.64,8.13,1.92,11.58,3.11,6.44,5.5,8.96c2.39,2.52,5.2,4.44,8.45,5.76,3.24,1.32,6.83,1.98,10.75,1.98,4.61,0,8.62-.7,12.03-2.11,3.41-1.41,6.31-3.43,8.7-6.08l13.7,13.7c-4.27,4.1-9.22,7.28-14.85,9.54s-12.16,3.39-19.58,3.39Z"/></g></svg>